<svg width="16" height="18" viewBox="0 0 16 18" fill="none" xmlns="http://www.w3.org/2000/svg">
<path d="M2.29207 14.3694H14.5531C14.5906 14.3694 14.627 14.364 14.662 14.3557C14.6647 14.3557 14.667 14.3561 14.6698 14.3561C14.9316 14.3561 15.1442 14.1437 15.1442 13.8818V0.474375C15.1442 0.212518 14.9316 0 14.6698 0H14.554H3.05075H2.29273C1.03009 0 0.00303662 1.02728 0.00303662 2.28958C0.00303662 2.30651 0.00636759 2.32258 0.0080135 2.33892C0.00636759 3.50497 -0.00809291 14.2195 0.0063676 15.628C0.00546626 15.6556 0.00209602 15.6825 0.00209602 15.7103C0.00209602 16.9241 0.952492 17.9177 2.14793 17.9928C2.17192 17.9965 2.19543 18 2.22031 18H14.6698C14.9315 18 15.1442 17.7876 15.1442 17.5256V15.74C15.1442 15.4782 14.9315 15.2656 14.6698 15.2656C14.4081 15.2656 14.1954 15.4783 14.1954 15.74V17.0513H2.29207C1.5712 17.0513 0.982746 16.4789 0.953825 15.7652C0.95453 15.7525 0.956842 15.7405 0.956607 15.7275C0.956137 15.7067 0.955432 15.6742 0.954961 15.6311C0.996423 14.9287 1.57943 14.3694 2.29207 14.3694ZM2.61553 2.28958C2.61553 2.02772 2.82805 1.81521 3.0899 1.81521C3.35176 1.81521 3.56428 2.02772 3.56428 2.28958V11.9254C3.56428 12.1872 3.35176 12.3998 3.0899 12.3998C2.82805 12.3998 2.61553 12.1871 2.61553 11.9254V2.28958Z" fill="#E89B1B"/>
</svg>
