<svg width="19" height="18" viewBox="0 0 19 18" fill="none" xmlns="http://www.w3.org/2000/svg">
<path d="M17.8233 8.06485L10.2284 0.469648C9.60068 -0.156247 8.57996 -0.157135 7.95096 0.470499L0.356131 8.06485C-0.11871 8.53962 -0.11871 9.30976 0.356131 9.78453C0.831268 10.2596 1.60089 10.2596 2.07595 9.78453L3.10547 8.75486V16.7042C3.10547 17.4198 3.68564 18 4.40133 18H7.16957V14.3884C7.16957 14.1079 7.39695 13.8801 7.67801 13.8801H10.5027C10.7835 13.8801 11.011 14.1079 11.011 14.3884V18H13.7788C14.4945 18 15.0746 17.4199 15.0746 16.7043V8.75552L16.1035 9.78456C16.3412 10.0221 16.6523 10.1408 16.9634 10.1408C17.2745 10.1408 17.5857 10.0221 17.8233 9.78456C18.2985 9.30976 18.2985 8.53965 17.8233 8.06485Z" fill="#E89B1B"/>
</svg>
