<svg width="11" height="18" viewBox="0 0 11 18" fill="none" xmlns="http://www.w3.org/2000/svg">
<path d="M5.48438 18C6.64935 18 7.59375 17.0556 7.59375 15.8906C7.59375 14.7256 6.64935 13.7812 5.48438 13.7812C4.3194 13.7812 3.375 14.7256 3.375 15.8906C3.375 17.0556 4.3194 18 5.48438 18Z" fill="#E89B1B"/>
<path d="M5.48438 0C2.46027 0 0 2.46027 0 5.48438V6.01172H4.21875V5.48438C4.21875 4.78649 4.78649 4.21875 5.48438 4.21875C6.18226 4.21875 6.75 4.78649 6.75 5.48438C6.75 5.85626 6.58677 6.20824 6.30211 6.45015L3.375 8.93876V12.7266H7.59375V10.8894L9.03431 9.66463C10.2637 8.62 10.9688 7.0964 10.9688 5.48438C10.9688 2.46027 8.50848 0 5.48438 0V0Z" fill="#E89B1B"/>
</svg>
